<svg width="201" height="49" viewBox="0 0 201 49" fill="none" xmlns="http://www.w3.org/2000/svg">
<path d="M108.871 45.2512C109.698 45.1982 110.411 45.825 110.464 46.6516C110.517 47.4782 109.89 48.1912 109.063 48.2444C107.142 48.3675 105.19 48.4541 103.207 48.5002C101.123 48.5487 99.0664 48.5468 97.0381 48.4983C96.21 48.4784 95.5546 47.7911 95.5742 46.9631C95.594 46.1351 96.2814 45.4797 97.1094 45.4992C99.0907 45.5466 101.1 45.5476 103.137 45.5002C105.079 45.4551 106.99 45.3718 108.871 45.2512ZM67.126 42.674C67.3326 41.8721 68.1501 41.3897 68.9521 41.5959C72.7407 42.5713 76.6765 43.3951 80.7549 44.0334C81.5733 44.1615 82.1329 44.9289 82.0049 45.7473C81.8768 46.5658 81.1095 47.1254 80.291 46.9973C76.1142 46.3436 72.0842 45.4999 68.2051 44.5012C67.4028 44.2946 66.9194 43.4763 67.126 42.674ZM135.56 40.8049C136.358 40.5849 137.184 41.0542 137.404 41.8528C137.624 42.6512 137.155 43.4773 136.356 43.6975C132.708 44.7035 128.901 45.5821 124.937 46.3049C124.122 46.4534 123.34 45.9128 123.191 45.0979C123.043 44.283 123.584 43.5024 124.398 43.3537C128.274 42.6472 131.995 41.7878 135.56 40.8049ZM40.3574 32.1457C40.734 31.4081 41.6372 31.1153 42.375 31.4914C45.8259 33.2522 49.485 34.9321 53.3447 36.4778C54.1135 36.7859 54.4866 37.659 54.1787 38.4279C53.8707 39.1969 52.9975 39.5709 52.2285 39.2629C48.28 37.6817 44.5391 35.9641 41.0117 34.1643C40.2738 33.7878 39.9809 32.8836 40.3574 32.1457ZM160.714 30.8703C161.447 30.4851 162.354 30.767 162.739 31.5002C163.125 32.2336 162.843 33.1403 162.109 33.5256C158.789 35.2698 155.25 36.9437 151.492 38.5002C150.727 38.8171 149.85 38.454 149.533 37.6887C149.216 36.9233 149.579 36.0457 150.345 35.7287C154.015 34.2086 157.471 32.5738 160.714 30.8703ZM16.3662 16.2434C16.8846 15.5972 17.8284 15.4935 18.4746 16.0119C21.3533 18.3214 24.6011 20.7397 28.2051 23.1565C28.8931 23.6179 29.0766 24.5504 28.6152 25.2385C28.1538 25.9263 27.2221 26.1099 26.5342 25.6487C22.8538 23.1807 19.5376 20.7104 16.5977 18.3518C15.9515 17.8334 15.8479 16.8895 16.3662 16.2434ZM183.164 15.7903C183.798 15.2564 184.744 15.3365 185.278 15.9699C185.812 16.6034 185.731 17.5503 185.098 18.0842C182.362 20.3896 179.256 22.8053 175.778 25.2248C175.098 25.6977 174.163 25.5298 173.69 24.8498C173.218 24.1698 173.385 23.235 174.065 22.7619C177.462 20.3988 180.494 18.0402 183.164 15.7903ZM2.3457 0.56662C2.34755 0.56892 2.35106 0.572873 2.35547 0.578339C2.3646 0.58966 2.37961 0.607747 2.39941 0.63205C2.43905 0.680681 2.49989 0.755135 2.58203 0.853729C2.74648 1.05111 2.99622 1.34608 3.3291 1.72775C3.99486 2.49109 4.99441 3.60204 6.31934 4.9758C6.89443 5.57209 6.87754 6.5218 6.28125 7.09689C5.68497 7.67192 4.73524 7.65504 4.16016 7.05881C2.79791 5.64636 1.76382 4.49794 1.06738 3.69943C0.719459 3.30051 0.45572 2.98873 0.277344 2.77463C0.188205 2.66763 0.120563 2.58442 0.0742188 2.52756C0.0511518 2.49926 0.032903 2.4775 0.0205078 2.46213C0.0143063 2.45444 0.00936162 2.44794 0.00585938 2.44357C0.00427652 2.4416 0.00297673 2.43997 0.00195312 2.43869L0 2.43674V2.43576C0.00505659 2.43157 0.0797565 2.37158 1.17188 1.50021C2.23864 0.649075 2.33513 0.572642 2.34375 0.565643L2.3457 0.56662ZM197.952 0.62619C198.434 -0.0469198 199.372 -0.201526 200.045 0.280487C200.719 0.762725 200.874 1.70064 200.392 2.37424H200.391L200.39 2.37619C200.389 2.3776 200.387 2.37984 200.386 2.38205C200.382 2.38656 200.378 2.39282 200.372 2.4006C200.361 2.41608 200.345 2.43791 200.324 2.46603C200.283 2.52286 200.222 2.60582 200.142 2.71213C199.981 2.92482 199.744 3.23387 199.43 3.62912C198.802 4.41952 197.866 5.55455 196.62 6.95139C196.069 7.56967 195.12 7.62385 194.502 7.07248C193.884 6.52114 193.83 5.57351 194.381 4.95529C195.586 3.60342 196.486 2.51176 197.081 1.76291C197.378 1.38859 197.6 1.10018 197.745 0.90744C197.818 0.811337 197.871 0.73872 197.905 0.69162C197.923 0.668075 197.936 0.650604 197.943 0.639862C197.947 0.634492 197.95 0.630253 197.951 0.628143C197.952 0.627208 197.952 0.626419 197.952 0.62619Z" fill="#51FF00"/>
</svg>
